<?xml version="1.0" encoding="utf-8"?>
<svg version="1.1" id="Layer_1" xmlns="http://www.w3.org/2000/svg" xmlns:xlink="http://www.w3.org/1999/xlink" x="0px" y="0px"
	 viewBox="0 0 512 512" style="enable-background:new 0 0 512 512;" xml:space="preserve">
	<g>
		<path fill="#0000" d="M384,18.29H128C67.41,18.29,18.29,67.41,18.29,128v256c0,60.59,49.12,109.71,109.71,109.71h256
			c60.59,0,109.71-49.12,109.71-109.71V128C493.71,67.41,444.59,18.29,384,18.29z"/>
		<path fill="#F00" d="M237.71,146.29v219.43c0,10.1,8.19,18.29,18.29,18.29c10.1,0,18.29-8.19,18.29-18.29V146.29
			c0-10.1-8.19-18.29-18.29-18.29C245.9,128,237.71,136.19,237.71,146.29"/>
		<path fill="#F00" d="M146.29,274.29h219.43c10.1,0,18.29-8.19,18.29-18.29c0-10.1-8.19-18.29-18.29-18.29H146.29
			c-10.1,0-18.29,8.19-18.29,18.29C128,266.1,136.19,274.29,146.29,274.29"/>
		<path d="M384,18.29V0H128C57.3,0.01,0.01,57.3,0,128h0v256h0c0.01,70.7,57.3,127.99,128,128h0h256l0,0
			c70.7-0.01,127.99-57.3,128-128V128C511.99,57.3,454.7,0.01,384,0V18.29v18.29c50.49,0.09,91.34,40.94,91.43,91.43v256
			c-0.09,50.49-40.94,91.34-91.43,91.43H128c-50.49-0.09-91.34-40.94-91.43-91.43l0-256C36.66,77.51,77.51,36.66,128,36.57h256V18.29
			z"/>
	</g>
</svg>
