<?xml version="1.0" encoding="UTF-8" standalone="no"?>
<svg
   id="Ebene_1"
   data-name="Ebene 1"
   viewBox="0 0 242.3 277.9"
   version="1.1"
   sodipodi:docname="bdrg_logo_r.svg"
   inkscape:version="1.1.2 (b8e25be833, 2022-02-05)"
   xmlns:inkscape="http://www.inkscape.org/namespaces/inkscape"
   xmlns:sodipodi="http://sodipodi.sourceforge.net/DTD/sodipodi-0.dtd"
   xmlns="http://www.w3.org/2000/svg"
   xmlns:svg="http://www.w3.org/2000/svg"
   xmlns:rdf="http://www.w3.org/1999/02/22-rdf-syntax-ns#"
   xmlns:cc="http://creativecommons.org/ns#"
   xmlns:dc="http://purl.org/dc/elements/1.1/">
  <sodipodi:namedview
     id="namedview97"
     pagecolor="#ffffff"
     bordercolor="#666666"
     borderopacity="1.0"
     inkscape:pageshadow="2"
     inkscape:pageopacity="0.0"
     inkscape:pagecheckerboard="0"
     showgrid="false"
     inkscape:zoom="1.4537604"
     inkscape:cx="8.5983909"
     inkscape:cy="157.17859"
     inkscape:window-width="1920"
     inkscape:window-height="1001"
     inkscape:window-x="-9"
     inkscape:window-y="-9"
     inkscape:window-maximized="1"
     inkscape:current-layer="Ebene_1" />
  <defs
     id="defs4">
    <style
       id="style2">.cls-1,.cls-2{fill:#006c52;}.cls-2{fill-rule:evenodd;}</style>
  </defs>
  <title
     id="title6">bdrg_logo</title>
  <path
     class="cls-1"
     d="m 170.7952,97.6 v 0 a -8.63,8.63 0 0 1 -3.2,-3.7 v 0 a -11.3,11.3 0 0 1 1.1,-1.1 -6.73,6.73 0 0 0 1.4,-1.5 l 0.1,-0.1 v 0.1 a -0.76,0.76 0 0 1 -0.3,0.8 -1.68,1.68 0 0 0 -0.5,1.2 -4.46,4.46 0 0 0 0.5,1.8 -7,7 0 0 1 0.9,2.5 z m -58.9,-1.2 c 0,-0.1 -0.1,-0.1 -0.2,-0.1 h -0.3 a -1,1 0 0 1 -0.2,-0.7 -1.88,1.88 0 0 1 0.9,-1.8 c 0.1,-0.1 0.2,-0.1 0.3,-0.2 l 0.1,-0.1 v 0.1 a -27.13,27.13 0 0 1 0.6,3.8 c 0.2,1.3 0.3,2.5 0.6,3.8 a -0.37,0.37 0 0 0 0.3,0.1 h 0.3 a -1,1 0 0 1 0.2,0.7 -3.19,3.19 0 0 1 -1.7,2.4 c -0.1,0 -0.2,0.1 -0.3,0.1 a -0.37,0.37 0 0 1 -0.3,-0.1 v 0 a -23.4,23.4 0 0 0 -0.2,-7 -3.4,3.4 0 0 0 -0.1,-1 z m 53.7,35.5 a -4.85,4.85 0 0 0 2.1,-0.8 c 2.5,-2.2 8.5,-12.8 8.5,-14 v -7.3 c 0,-1 -2.2,-5.9 -3.9,-9.4 -0.3,-0.7 -0.6,-1.4 -0.9,-2 h 0.1 a -101.2,101.2 0 0 1 5.4,10.1 -0.92,0.92 0 0 1 0.6,-0.4 -2.09,2.09 0 0 0 0.6,-0.4 V 106 l 0.1,0.1 a -2.42,2.42 0 0 1 1.3,2.3 c 0,1.3 -2.5,10.8 -4.7,15.5 a -27.33,27.33 0 0 1 -4.8,6.5 c -0.8,0.9 -1.5,1.7 -2,2.4 h -4.6 l 0.2,-0.1 a -5,5 0 0 1 2,-0.8 z m -1.2,4.2 v -0.3 0 a -0.91,0.91 0 0 0 0.7,-0.3 -1.64,1.64 0 0 1 1,-0.2 v 0 c 0,0.5 -0.1,1 -0.1,1.4 a -3,3 0 0 0 -0.1,1.3 -28.68,28.68 0 0 0 1.2,-3.4 c 0,-0.2 0.1,-0.3 0.1,-0.4 h 0.1 a -19.53,19.53 0 0 0 -0.3,3.4 c -0.1,2.7 -0.1,5.2 -3,6.5 h -0.1 V 144 a -10.82,10.82 0 0 1 1.5,-3.6 c 0.2,-0.3 0.4,-0.6 0.7,-1 a -2.51,2.51 0 0 1 -0.4,-0.7 c -0.1,-0.2 -0.1,-0.3 -0.2,-0.5 a -0.37,0.37 0 0 1 -0.3,0.1 v 0 a -2.22,2.22 0 0 1 -1.3,-0.9 v 0 a -1.46,1.46 0 0 0 0.5,-1.3 z m -97.399996,0.6 a -28.39,28.39 0 0 1 3.5,-7 v 0 l 0.1,-0.1 a -55.39,55.39 0 0 1 3.4,-4.6 -11.62,11.62 0 0 0 1.9,-2.8 v -0.6 0 a -2,2 0 0 0 -0.4,-0.8 -2.92,2.92 0 0 1 -0.5,-1.4 c 0,-0.8 0.9,-1.8 1.9,-2.8 a -26.14,26.14 0 0 0 1.7,-2 -5.94,5.94 0 0 0 0.4,-0.8 v 0 -0.1 c 0.1,-0.3 0.3,-0.7 0.4,-1.1 a -9.53,9.53 0 0 1 1.3,-2.9 v 0 c 0.1,0 0.1,-0.1 0.2,-0.2 0.1,-0.1 0.3,-0.5 1.1,-0.5 a -1.63,1.63 0 0 1 1.1,0.5 -1.2,1.2 0 0 0 1,0.5 c 1.1,0 2.6,-1.6 3,-2.8 a -6.05,6.05 0 0 0 0.2,-1.5 v 0 -0.8 a -7.59,7.59 0 0 1 0.1,-1.6 -33.74,33.74 0 0 0 1,-3.4 l 0.6,-2.1 v 0 -0.1 a -42.85,42.85 0 0 1 1.5,-4.2 c 0.4,-0.9 1.8,-1.3 2.8,-1.3 a -3.73,3.73 0 0 1 1.2,0.2 c 0.4,0.1 0.6,0.2 0.8,0 0,-0.2 0.1,-0.3 0.1,-0.4 a -2.2,2.2 0 0 0 0.3,-1.2 -3.26,3.26 0 0 0 -0.3,-1 v -0.1 0 a -28.17,28.17 0 0 0 -1.5,-3.1 -18.58,18.58 0 0 1 -1.8,-4.2 -15,15 0 0 1 0.7,-3.3 -24.92,24.92 0 0 0 0.7,-3.3 -2.33,2.33 0 0 0 -0.7,-1.5 -2.63,2.63 0 0 1 -0.7,-1.5 -5.34,5.34 0 0 1 0.5,-2 -8.35,8.35 0 0 0 0.5,-2 -15.28,15.28 0 0 0 -0.5,-3 c -0.2,-1.2 -0.5,-2.4 -0.5,-3 a -6.5,6.5 0 0 1 1.5,-4.1 v 0 c 0.4,0 0.9,-0.1 1.4,-0.1 a -12.82,12.82 0 0 0 3,-0.4 -6.54,6.54 0 0 1 1.3,-5.4 -10.85,10.85 0 0 1 7.799996,-3.7 q 9,0 14.1,3.9 c 4.4,3.3 6.7,8.9 6.9,16.5 4.3,3 9.1,4.4 13.4,5.6 0.4,0.1 1,0.1 1.8,0.2 2.3,0.1 5.7,0.3 6,2.9 v 0 c -3,2.5 -7.7,3.4 -11.5,3.9 a -31.93,31.93 0 0 1 -6.1,0.1 -2.14,2.14 0 0 1 -0.9,2.8 c -0.3,0.3 -0.7,0.5 -0.9,0.9 0.2,0.4 0.4,0.7 0.6,1.1 a -21.48,21.48 0 0 1 1.4,2.6 v 0.1 0 a -11.27,11.27 0 0 1 1.6,5.2 c 0,0.9 -0.3,1.2 -0.7,1.4 -0.1,0.1 -0.3,0.2 -0.4,0.3 h -5.3 v -0.5 a -2.46,2.46 0 0 0 -0.5,-1.7 v 0 c 0.1,-0.1 0.2,-0.3 0.3,-0.4 a -2.09,2.09 0 0 0 0.7,-1.3 v -0.1 l 0.1,0.1 a -3.44,3.44 0 0 1 0.4,1.9 -4.1,4.1 0 0 0 0.1,1.1 -4.75,4.75 0 0 1 3.7,0 v -3.1 a -7.31,7.31 0 0 0 -1.4,-2.8 l -0.1,-0.1 v 0 c -0.2,-0.4 -0.5,-0.7 -0.7,-1.1 -0.4,-0.6 -0.8,-1.2 -1.2,-1.7 a -1.27,1.27 0 0 1 -0.6,0.4 -1,1 0 0 0 -0.5,0.4 -5.68,5.68 0 0 1 -0.6,2.1 v 0 a -8.26,8.26 0 0 1 -0.7,1.3 -13,13 0 0 0 -0.8,1.7 l -0.1,0.1 v -0.1 a -2.25,2.25 0 0 1 0.1,-1.2 -0.76,0.76 0 0 0 0.1,-0.4 -3.69,3.69 0 0 0 -1.4,-0.9 -4.05,4.05 0 0 1 -0.9,-0.5 l -0.2,-0.1 v 0 c -0.1,-0.1 -0.2,-0.1 -0.2,-0.2 l -0.1,-0.1 h 0.1 a -2.77,2.77 0 0 1 0.9,-0.1 c 0.6,-0.1 1.1,-0.1 1.3,-0.4 a -4.34,4.34 0 0 0 -0.7,-1.6 -14.65,14.65 0 0 1 -2.8,1.4 h -0.1 v -0.1 a -4.14,4.14 0 0 1 0.2,-1.5 -2.92,2.92 0 0 0 0.2,-0.9 v 0 a -16.41,16.41 0 0 1 2.3,-0.2 c 1.5,-0.1 3,-0.2 3.9,-0.9 l -4.6,-0.3 a -3,3 0 0 1 -3,0.3 v 0 a -6.91,6.91 0 0 1 3.9,-1.8 c 1.4,-0.3 2.8,-0.5 3.7,-2.2 a -1.38,1.38 0 0 0 -0.4,-0.3 c -0.3,-0.2 -0.5,-0.3 -0.5,-0.6 -1.7,-0.4 -3.9,-1.3 -5.9,-2 a -27.47,27.47 0 0 0 -4.3,-1.4 h -0.4 c -0.4,0 -0.4,0 -0.5,0.1 l -0.2,0.2 v 2.1 h -1.8 a -2.06,2.06 0 0 0 -1,-1.7 -4.35,4.35 0 0 1 -0.6,-0.7 c -0.1,0.1 -0.1,0.2 -0.1,0.4 -0.2,0.5 -0.4,1.1 -1.2,1.1 -1.1,0 -3.3,-1.5 -4,-2.4 a -2.08,2.08 0 0 1 -2.1,1.4 -4.66,4.66 0 0 1 -2,-0.8 -4,4 0 0 0 -1.9,-0.7 h -0.5 a -3.2,3.2 0 0 0 -1.499996,0.2 -3.88,3.88 0 0 1 0.9,2.3 c 0.1,0.3 0.1,0.6 0.199996,0.8 a -2.83,2.83 0 0 1 1.8,-0.9 h 0.1 v 2.9 h -0.1 a -1.94,1.94 0 0 1 -1.4,-0.9 -3.17,3.17 0 0 0 -0.1,1.9 l 0.1,0.2 -0.2,-0.2 a -17.05,17.05 0 0 1 -2.599996,-4.4 -6.37,6.37 0 0 0 -0.2,0.7 -1.27,1.27 0 0 1 -0.1,0.6 v 0.1 l -0.1,-0.1 a -2.56,2.56 0 0 1 -0.8,-1.1 c -0.1,-0.1 -0.1,-0.2 -0.2,-0.4 a -1.19,1.19 0 0 0 -0.2,0.6 -10,10 0 0 1 1.4,4.5 c 0,1 -0.3,1.2 -0.7,1.4 -0.1,0 -0.1,0.1 -0.2,0.1 l 0.6,0.7 c 0.1,-0.1 0.1,-0.2 0.2,-0.4 a -8.35,8.35 0 0 1 1.2,-1.6 l 0.1,-0.1 v 0.1 a -4.33,4.33 0 0 0 0.1,0.5 -1.4,1.4 0 0 0 0.3,0.9 -10.93,10.93 0 0 1 1.499996,-0.8 -15.61,15.61 0 0 0 3.9,-2.6 l 0.1,-0.1 v 0.9 c 0.1,0.1 0.3,0.1 0.7,0.1 0.4,0 0.6,0 0.7,-0.1 a -0.37,0.37 0 0 0 0.1,-0.3 v -0.6 l 0.1,0.1 a -1.38,1.38 0 0 0 0.3,0.4 c 0.5,0.8 0.6,1 1.6,1 a -3.07,3.07 0 0 0 1.3,-0.3 -0.37,0.37 0 0 1 0.3,-0.1 -2.44,2.44 0 0 0 -0.8,-1.2 -3.17,3.17 0 0 1 -0.5,-0.6 v -0.1 h 0.1 a -4.43,4.43 0 0 0 2,-1.1 v 0 a -10.54,10.54 0 0 1 1.1,0.7 -5.07,5.07 0 0 0 1.8,0.9 h 0.1 v 0.1 c -0.9,1.7 -1.8,3.5 -1.8,4.8 a -9.84,9.84 0 0 0 1.5,3.8 v 0 c 0.2,0.5 0.5,0.9 0.7,1.3 l 0.1,0.2 h -3.2 V 89 89 a -6.56,6.56 0 0 0 -1.5,-3 -8.65,8.65 0 0 1 -0.7,-1 c 0,0.1 0,0.1 0.1,0.2 a -17.57,17.57 0 0 1 0.7,2.9 v 0.2 l -0.1,-0.2 a -5.8,5.8 0 0 0 -1,-1.2 -4.81,4.81 0 0 1 -1.2,-1.6 v 0 l 0.9,-0.9 a -2.26,2.26 0 0 1 -0.8,-1.1 -3,3 0 0 0 -0.7,-1.1 l -0.7,0.7 a -1.87,1.87 0 0 1 -0.3,2.2 -2.29,2.29 0 0 0 -0.6,1.5 c 0,0.4 0.1,1.2 0.2,2 l 0.1,0.5 v 0 a -18.89,18.89 0 0 1 0.3,4.7 c 0.3,0.4 0.9,1.2 1.3,1.3 0.9,-1 1.3,-1.4 1.9,-2 v 0 a -1.22,1.22 0 0 1 0.4,0.9 -1.9,1.9 0 0 0 0.3,0.9 v 0 a -3.51,3.51 0 0 1 -0.8,0.5 -4.55,4.55 0 0 1 -2.4,1.2 c -1.2,0 -1.9,-1.8 -2.1,-2.5 -1.6,1.1 -2.6,0.3 -3.8,-0.6 a -7.44,7.44 0 0 0 -2.299996,-1.4 c -0.1,0.7 -0.4,1.5 -0.6,2.3 a -18.48,18.48 0 0 0 -0.6,2.6 v 0 0.6 c 0,0.5 1.4,1.9 3.499996,3.4 2.1,1.5 4,2.5 4.8,2.5 0.8,0 0.9,-0.2 1,-0.3 0.1,-0.1 0.1,-0.1 0.2,-0.1 a -26.42,26.42 0 0 1 0.2,-2.9 -13.55,13.55 0 0 0 0.2,-2 h 0.1 a -2.09,2.09 0 0 1 1.2,0.6 v 0 c -0.1,0.7 -0.2,1.3 -0.3,1.9 a -10.7,10.7 0 0 1 -1,4.1 -2.09,2.09 0 0 1 0.6,0.4 v 0 c 1,0.6 4.2,2.7 4.6,4.3 a -0.76,0.76 0 0 1 0.5,-0.2 h 0.1 a -1.59,1.59 0 0 1 1,0.5 v 0 a -1.45,1.45 0 0 1 -0.2,0.7 c -0.2,0.7 -0.4,1.3 0.5,2 a -9.29,9.29 0 0 0 2.4,-0.3 -2.77,2.77 0 0 1 0.9,-0.1 h 0.1 v 0.1 a -1.8,1.8 0 0 0 -0.1,1 v 0 c 0.1,0.8 0.9,1.2 1.6,1.5 0.7,0.3 1.3,0.6 1.5,1.2 a -0.1,0.1 0 0 1 0.1,-0.1 c 0.2,-0.4 0.4,-0.8 0.9,-0.7 v 0 0.8 a -17.19,17.19 0 0 0 0.3,3.4 l 0.8,-0.9 v 0 c 0.6,0.5 1.1,0.6 1.6,0.2 v -1.8 l 0.1,0.1 a -3.17,3.17 0 0 1 0.5,3.1 -3.13,3.13 0 0 1 0.8,1.1 v 0.1 0 a -6.12,6.12 0 0 1 0.5,1.2 c 0.1,0.2 0.1,0.3 0.2,0.5 h 0.7 a -2.63,2.63 0 0 1 3.2,1.9 v -0.4 c 0,-0.4 0,-1 0.8,-1 a -4.2,4.2 0 0 1 1.4,0.3 -1.42,1.42 0 0 0 0.6,0.2 v 0 1.8 0 a -0.91,0.91 0 0 1 -0.5,0.3 c -0.2,0 -0.3,0.1 -0.3,0.8 0,0.7 0.1,0.7 0.3,0.8 0.2,0.1 0.2,0 0.4,0.2 0.7,-0.5 2.9,-3.1 2.9,-3.7 0,-0.6 -0.2,-0.6 -0.4,-0.6 -0.2,0 -0.5,0 -0.5,-0.7 0,-0.7 0.3,-0.7 0.5,-0.8 0.2,-0.1 0.4,-0.1 0.4,-0.7 v -0.2 0 a -2.65,2.65 0 0 0 -0.9,-1.9 l -0.2,-0.2 a -2.66,2.66 0 0 0 -0.6,1 c -0.3,0.5 -0.5,0.9 -0.8,0.9 h -0.1 a -4.84,4.84 0 0 0 -0.7,-1.8 l -1.2,1.4 h -1.7 a -2.09,2.09 0 0 1 0.5,-1.4 v 0 a -1.78,1.78 0 0 1 1,0.4 c 0.1,0.1 0.2,0.1 0.3,0.2 a -2.39,2.39 0 0 1 0.2,-0.9 -3.92,3.92 0 0 0 0.2,-1.3 c 0,-1.2 -0.8,-1.2 -2,-1.2 a -1.91,1.91 0 0 0 -1.2,0.5 c -0.3,0.2 -0.5,0.4 -0.8,0.3 h -0.1 V 117 a -1.34,1.34 0 0 1 0.7,-0.6 -1.09,1.09 0 0 0 0.7,-1.2 -5.39,5.39 0 0 0 -0.6,-1.8 v -0.1 0 a -11.94,11.94 0 0 0 -0.8,-1.6 -13,13 0 0 1 -1.4,-3.5 -16.22,16.22 0 0 0 -0.2,-2.9 v 0 c -0.1,-0.3 -0.1,-0.6 -0.2,-1 v -0.1 h 0.1 a -0.37,0.37 0 0 1 0.4,0.4 c 0,0.3 0.1,0.5 0.7,0.5 1,0 1.1,-0.6 1.2,-1.2 v -0.3 l 1,1 0.7,-0.8 c -0.5,-2.9 -1.8,-3.1 -3,-3.1 h -0.4 a -5.07,5.07 0 0 0 -1.3,0.2 -7.77,7.77 0 0 1 -1.6,0.2 h -0.1 V 101 c 0.5,-1.1 1.8,-1.3 2.9,-1.5 1.5,-0.2 2.9,-0.5 3.2,-2.3 v -0.1 l 0.1,0.1 v 0 a -1.07,1.07 0 0 0 0.3,0.5 c 0.2,0.2 0.4,0.4 0.4,1.2 a -1.17,1.17 0 0 1 -0.5,1.1 -1.42,1.42 0 0 0 -0.4,1.1 -3,3 0 0 0 0.5,1.6 -4.28,4.28 0 0 1 0.5,1.6 -2.49,2.49 0 0 1 -0.1,0.8 v 0 0.1 a -4.46,4.46 0 0 1 -1.7,2.7 -12,12 0 0 0 2.4,2.7 -15.39,15.39 0 0 1 2.5,2.6 l 0.1,0.1 v 0 a -4.49,4.49 0 0 1 0.6,3.9 c 1.2,0.8 1.7,2.5 2,4 v 0 l 0.1,0.3 a -6.69,6.69 0 0 0 0.6,2.1 c 1,1.4 1.8,2.5 2.5,3.5 0.4,0.6 0.8,1.3 1.3,2.2 v 0.1 0 c 0.3,0.6 0.6,1.1 0.9,1.7 1.7,3.3 3.4,6.7 5.4,7.3 a -10.53,10.53 0 0 0 2.5,-3 c 1.3,-2 2.5,-3.8 4.7,-3.1 0.2,-0.5 0.4,-1.1 0.7,-1.7 0.2,-0.4 0.3,-0.8 0.5,-1.3 v 0 c 1,-2.4 2.3,-5.6 2.3,-6.5 0,-0.3 -0.1,-0.8 -0.2,-1.5 v -0.1 0 c -0.1,-0.5 -0.3,-1 -0.4,-1.6 -0.2,-0.8 -0.4,-1.6 -0.6,-2.3 a -35.82,35.82 0 0 1 -0.4,-4 v -0.1 0 -1.7 c 0,-1.3 0,-2.5 -0.1,-3.7 a -12.21,12.21 0 0 0 -0.6,-2.6 v 0 c -0.1,-0.3 -0.2,-0.7 -0.3,-1 a -16,16 0 0 1 -0.7,-2.8 c 0,-1.3 0.1,-1.7 0.6,-2.2 h 1.6 l 0.7,0.9 c 0,-0.4 0,-1.5 0.1,-2.8 v 0 a -25,25 0 0 1 2.1,-8 v 0 a -7.45,7.45 0 0 1 5.3,-4.3 h 0.5 a -7.58,7.58 0 0 1 5.9,3.7 c 0.1,-0.1 0.1,-0.2 0.2,-0.3 0.3,-0.4 0.6,-0.9 1,-0.9 v 0 a -22,22 0 0 1 1.2,1.9 v 0.1 0 a -34.42,34.42 0 0 1 2.9,7.9 v 0 c 0.5,2.3 1,4.8 1.3,7.4 v 0.3 l -0.1,-0.3 -3.7,-7.4 v 0 c -0.6,-1.2 -1.1,-2.4 -1.7,-3.6 a -10.09,10.09 0 0 0 -1.5,-2.1 -4.79,4.79 0 0 1 -1.1,-1.5 c -0.1,-0.3 -0.3,-0.5 -0.4,-0.8 v 0 a -4.52,4.52 0 0 0 -4.3,-2.6 h -0.1 c -1.4,0 -2.8,1.3 -3.7,2.6 a -4.67,4.67 0 0 0 -0.5,1 -24.31,24.31 0 0 0 -1.7,7 v 0 c -0.1,1.1 -0.1,2 -0.1,2.4 a -18.29,18.29 0 0 0 0.9,3.2 -11.88,11.88 0 0 1 0.7,2.3 v 0 a -5.07,5.07 0 0 1 0.2,0.9 c 0,2.5 0.9,4 3.3,5.9 a -5.67,5.67 0 0 1 1.3,-0.8 c 1.2,-0.7 2.5,-1.5 2.5,-2.3 a -15,15 0 0 1 0.2,-2 -8.75,8.75 0 0 0 0.2,-1.6 v 0 -0.4 a -1.66,1.66 0 0 0 -0.3,-1 -1.18,1.18 0 0 1 -0.4,-1 h 0.1 c 0,0.9 0.5,1.1 1.1,1.4 a -2.19,2.19 0 0 1 0.5,0.3 -12.67,12.67 0 0 0 -1.6,-4.6 -23.58,23.58 0 0 1 -1.2,-2.8 v -0.1 0 l -0.3,-0.9 -0.1,-0.2 0.1,0.2 c 0.2,0.3 0.5,0.6 0.7,0.9 l 0.2,0.2 v 0 a -37,37 0 0 1 3,4 -12.22,12.22 0 0 1 0.6,2.7 -5,5 0 0 0 0.2,1.2 v 0 c 0.2,1.4 0.6,2.9 1.7,3.5 h 0.1 a -5.35,5.35 0 0 0 -1.4,4.2 v 0.2 0 a -5.28,5.28 0 0 1 -0.1,1.3 v 0.1 l -1,-1 a -7.68,7.68 0 0 1 -1.7,3.2 v 0 a -6.37,6.37 0 0 1 -0.7,0.2 -2.1,2.1 0 0 0 -1.1,0.4 v 1.5 l -0.1,-0.1 a -10.91,10.91 0 0 1 -0.6,-1.1 -2.19,2.19 0 0 0 -0.3,-0.5 -8.58,8.58 0 0 0 -0.3,1.7 c 0,0.4 -0.1,0.7 -0.1,1.1 v 0.1 l -0.1,-0.1 a -8.09,8.09 0 0 1 -0.8,-2.5 c -0.1,-0.3 -0.1,-0.6 -0.2,-0.8 -0.4,0.7 -1.9,3.1 -3.3,3.8 l -0.1,0.1 v -0.1 a -17.93,17.93 0 0 1 2.2,-3.8 c 0.5,-0.8 1,-1.5 1.4,-2.2 a -4.36,4.36 0 0 1 -1.9,-1.2 l -0.1,-0.1 v 0 c -1.5,-1.5 -2.2,-3.8 -2.9,-6.1 -0.2,-0.6 -0.3,-1.2 -0.5,-1.8 v 0 c -0.5,-1.7 -1.3,-3.6 -2.9,-4.5 -0.2,0.3 -0.2,0.6 -0.2,1.4 v 0.5 a -18.14,18.14 0 0 0 0.5,2.5 v 0 c 0.1,0.2 0.1,0.5 0.2,0.7 a -24.92,24.92 0 0 1 0.7,3.3 v 3.9 0 2.7 a -4.51,4.51 0 0 0 1.1,2.2 -5,5 0 0 1 1.1,2.4 -3.78,3.78 0 0 0 0.8,-0.5 l 0.1,-0.1 v 0.1 a -13.39,13.39 0 0 1 -0.6,1.2 v 0 l -0.1,0.1 a -2.83,2.83 0 0 0 -0.6,1.6 -2.89,2.89 0 0 0 0.4,1.4 -3.31,3.31 0 0 1 0.4,1.5 v 0.1 h -0.1 c -1.1,-0.5 -1.7,-0.5 -2.1,-0.1 -0.3,1 -0.7,2 -1.1,3.4 v 0 c -0.1,0.3 -0.2,0.7 -0.3,1 -0.3,1 -0.6,2 -0.9,2.9 a -9.48,9.48 0 0 1 -1.7,2.7 q -0.6,0.75 -0.9,1.2 a -15.77,15.77 0 0 0 2.4,3 -17.3,17.3 0 0 1 3,4.1 l 0.1,0.2 -0.2,-0.1 a -64.21,64.21 0 0 1 -7.4,-7.3 -7.79,7.79 0 0 0 -1.2,5.3 v 0 a -0.76,0.76 0 0 0 -0.5,0.2 -2.23,2.23 0 0 1 -1.5,0.4 h -0.1 c -2.1,-2.4 -5,-7 -7.8,-11.5 a -13.73,13.73 0 0 0 -1.3,-2 v -0.1 0 l -0.1,-0.2 c -0.6,-0.9 -1.1,-1.7 -1.6,-2.5 a -2.19,2.19 0 0 0 -0.3,0.5 -3.6,3.6 0 0 1 -0.8,1.2 l 0.5,1 v 0 c 0.6,1.1 1.2,2.2 1.8,3.2 2.3,4 4.7,8.1 5.6,12.3 h -0.1 c -2.3,-5.3 -5.6,-10.1 -7.9,-12.2 1.2,2.7 2.2,5.2 3.2,7.9 0.5,1.4 1.1,2.8 1.7,4.3 h -0.1 c -1.3,-2.1 -2.6,-4.4 -4,-6.8 -1.7,-2.9 -3.4,-5.9 -5.1,-8.6 v 0 a -24.92,24.92 0 0 0 -1.7,-2.4 -16.66,16.66 0 0 0 -4.6,-3.7 c -1,-0.6 -2,-1.2 -3,-1.9 l -0.1,-0.1 v 0 a -16,16 0 0 1 -1.9,-1.6 -1.19,1.19 0 0 0 -0.2,0.6 -3.13,3.13 0 0 1 0.5,1 v 0 0.1 0 a -19.17,19.17 0 0 1 1.1,3.1 l 0.1,0.2 -0.2,-0.2 a -16.46,16.46 0 0 1 -2,-3.1 l -0.1,-0.1 v 0 a -9.64,9.64 0 0 0 -2.3,-3.1 -4.57,4.57 0 0 0 -2,-0.9 -2.79,2.79 0 0 1 -1.7,-0.9 c -0.3,-0.4 -0.7,-1 -1,-1.5 a -13,13 0 0 0 -1,-1.5 -6.15,6.15 0 0 0 -2,-2 -18.32,18.32 0 0 0 -4.5,-1.5 c -0.7,-0.2 -1.3,-0.3 -1.8,-0.5 -0.5,-0.2 -0.8,-0.2 -1.1,-0.3 a -9,9 0 0 0 -2.499996,-0.6 c -0.8,-0.1 -1.6,-0.3 -2.4,-0.4 -2.4,-0.3 -4.9,-0.7 -6.5,-1.7 l -0.7,0.7 a -5.91,5.91 0 0 0 0.8,0.5 l 0.1,0.1 h -0.1 a -1.27,1.27 0 0 1 -0.6,0.1 c -0.3,0.1 -0.5,0.1 -0.7,0.3 l 0.9,1.1 h -0.1 a -1.4,1.4 0 0 0 -0.8,0.4 l 0.7,0.7 c 0.2,-0.1 0.4,-0.3 0.6,-0.4 a -8.47,8.47 0 0 1 1.7,-1 h 0.1 v 0.1 c 0,0 0.1,0.3 -0.4,1.1 0.1,0.1 0.2,0.1 0.2,0.2 a -1,1 0 0 1 0.5,1.1 v 0.1 l -0.1,-0.1 a -2.51,2.51 0 0 0 -0.8,-0.5 -2.09,2.09 0 0 1 -0.6,-0.4 c 0.1,0.9 0.9,1.4 1.7,1.9 a -2.58,2.58 0 0 1 1.2,1.1 v 0 a -0.35,0.35 0 0 0 0.1,0.2 v 0.1 h -0.1 a -1.58,1.58 0 0 0 -0.8,0.3 -25.5,25.5 0 0 0 2.4,1.4 c 2,1 4.1,2.1 4.2,3.8 v 0.1 l -0.4,-0.3 a -96.43,96.43 0 0 1 -8.6,-5.5 v 0 a -32.64,32.64 0 0 1 -4.3,-3.6 l -1.5,1.7 c 0.5,0.6 0.9,1.2 1.4,1.8 v 0 c 0.3,0.4 0.6,0.8 0.8,1.1 0.8,1.1 1.5,2.1 2.2,3 l 0.1,0.2 -0.2,-0.1 a -11.19,11.19 0 0 1 -3.9,-3.9 l -0.1,-0.2 v 0 c -1,-1.5 -1.8,-2.6 -3.2,-2.6 h -0.4 c -0.6,0 -0.6,0 -0.8,0.2 l -0.1,0.1 a -2.07,2.07 0 0 0 0.2,0.8 -4.29,4.29 0 0 0 0.4,1.4 v 0 a -19.31,19.31 0 0 0 2.2,3.6 c 0.1,0.2 0.3,0.4 0.4,0.6 l 0.1,0.1 -0.2,-0.1 a -11.6,11.6 0 0 1 -4.1,-3.7 l -0.1,-0.1 a -13.18,13.18 0 0 1 -2,3.4 -6,6 0 0 0 -1.4,2.6 c 0,0.4 0.2,0.8 0.8,1.5 l 0.1,0.1 v 0 a -15.27,15.27 0 0 0 1.8,1.8 l 1.3,1.3 h 5.3 a -53.4,53.4 0 0 0 10.4,-1.7 -6.6,6.6 0 0 0 2.4,-1.5 v 0 l 1.2,-1.2 0.6,-0.6 v 0 c 0.499996,0.5 0.999996,1.1 1.499996,1.7 l 0.1,0.1 v 0 a -35.42,35.42 0 0 1 4.3,7.9 v 0 c 0.9,2 1.6,4.1 2.3,6.1 0.5,1.4 1,2.7 1.5,4 h -0.1 a -26,26 0 0 1 -1.2,-2.4 c -1,-2.1 -2.4,-4.9 -3.9,-7.6 v 0 c -2.5,-4.5 -4.499996,-6.8 -5.899996,-6.8 a -1.15,1.15 0 0 0 -1.2,0.8 c -0.1,0.1 -0.2,0.3 -0.3,0.4 a -41.38,41.38 0 0 1 3.299996,5.5 v 0 c 2.7,5.1 5.7,11.3 5.7,12.6 0,0.8 -0.2,0.9 -0.3,1 a -1.07,1.07 0 0 0 -0.3,0.5 v 0.1 l -0.1,-0.1 a -96.47,96.47 0 0 0 -7.299996,-14 v 0 c -1.7,-2.5 -3,-3.8 -4,-3.8 h -0.5 c -0.4,0 -0.4,0 -0.4,0.1 l -0.1,0.1 c 0.4,0.6 1.2,1.8 2.2,3.5 v 0 c 1.7,2.8 5.499996,9.7 5.499996,12.8 a -3.1,3.1 0 0 1 -0.4,1.6 l -0.299996,0.6 -0.1,0.2 v -0.2 c -0.8,-5.4 -5.1,-10.7 -8.6,-14.9 v 0 c -0.9,-1.1 -1.6,-1.9 -2.2,-2.8 l -0.6,0.7 a -5.74,5.74 0 0 0 0.4,0.7 c 0.2,0.4 0.5,0.9 0.7,1.3 v 0 a -81,81 0 0 1 6,13 l 0.1,0.3 -0.2,-0.3 c -0.7,-1 -1.5,-2.5 -2.5,-4.3 a -65.78,65.78 0 0 0 -5.3,-8.6 v 0 a -7.64,7.64 0 0 0 -1.8,-1.8 -16.65,16.65 0 0 0 -2.8,1.8 c -5.2,4.2 -7.1,11 -7.7,16 h -0.1 V 140 c -0.1,-0.9 1.9,-4.9 3.6,-8.4 0.3,-0.7 0.7,-1.3 1,-2 l 0.3,-0.6 c 0.1,-0.3 0.3,-0.6 0.4,-0.9 a -10.36,10.36 0 0 0 -4.5,-1.8 h -0.8 c 0,0 0,0.1 -0.2,0.3 a -0.86,0.86 0 0 0 0.3,0.6 -4.35,4.35 0 0 1 0.4,0.7 l 0.1,0.1 -0.1,-0.1 c -0.2,-0.1 -0.3,-0.2 -0.5,-0.3 a -2,2 0 0 0 -1.3,-0.4 c -0.6,0 -1.5,0.7 -2.7,2.2 v 0 l -0.1,0.1 a -61.49,61.49 0 0 0 -3.7,5.2 -1.76,1.76 0 0 1 -0.4,2 l -0.1,0.3 z M 172.3952,90.6 a -37.21,37.21 0 0 0 3.2,6.8 -4.48,4.48 0 0 0 -0.1,-1.1 -6.05,6.05 0 0 1 -0.2,-1.5 -5.64,5.64 0 0 0 -3,-4.5 z m -50.3,-35.5 a -4.77,4.77 0 0 0 -3.5,-2 -3.74,3.74 0 0 0 -1.6,0.7 -2.72,2.72 0 0 1 -1.6,0.8 -2.26,2.26 0 0 1 -1.7,-0.6 c -0.1,0 -0.1,-0.1 -0.2,-0.1 l -0.1,-0.1 h 0.1 c 0.3,-0.1 0.7,-0.2 1.1,-0.3 a -9,9 0 0 0 2.4,-0.7 -43,43 0 0 1 -5.7,-1.4 -12.25,12.25 0 0 0 -2.8,-0.7 c -1.7,0 -1.9,0.5 -2.1,1 -0.2,0.5 -0.4,1 -1.9,1.1 l 0.8,1 v 0 a -3.82,3.82 0 0 1 -1.8,0.9 c -0.2,0 -0.3,0.1 -0.5,0.1 h 1.9 v 0.1 c 0,0.3 0.2,0.4 0.5,0.6 a -1.38,1.38 0 0 0 0.4,0.3 v 0 a -4.88,4.88 0 0 1 -2.2,1.3 c -0.5,0.2 -0.9,0.4 -1.4,0.6 a -30.58,30.58 0 0 0 6.6,1.2 -21.68,21.68 0 0 1 8.4,2.1 -25.16,25.16 0 0 1 5.4,4.2 -23.55,23.55 0 0 0 4.3,3.5 c 0.1,-0.8 -1.5,-9.5 -4.8,-13.6 z m -24.299996,8.1 a -0.94,0.94 0 0 1 -0.8,0.3 v 2.2 a -11.13,11.13 0 0 1 2.4,5 c 1.899996,-1.2 3.899996,-0.5 5.499996,0 a -6.32,6.32 0 0 0 2.1,0.5 v 0 l 1,1 a -7.32,7.32 0 0 1 2.7,-1.1 -5,5 0 0 0 1.3,-0.4 -0.81,0.81 0 0 1 0.7,0.2 l 0.1,0.1 h -0.1 a -4.82,4.82 0 0 0 -2.2,1.5 c 2.1,-0.4 4.3,-0.9 6.7,-1.5 l 0.2,-0.1 -0.2,0.1 a -11.42,11.42 0 0 1 -2.2,1.2 c -0.4,0.2 -0.8,0.4 -1.3,0.6 a -2,2 0 0 0 1.9,-0.3 v 0 c 0.2,0.2 0.1,0.5 0,0.7 a -0.82,0.82 0 0 0 -0.1,0.7 -5.84,5.84 0 0 1 3.5,-0.2 h 0.1 l -0.1,0.1 a -2.48,2.48 0 0 1 -0.6,0.4 -5.65,5.65 0 0 0 1.3,0 -3.75,3.75 0 0 1 1.5,0 h 0.1 l -0.1,0.1 a -0.78,0.78 0 0 0 -0.4,0.4 -2.65,2.65 0 0 1 -0.6,0.5 -1.8,1.8 0 0 0 1,-0.1 -3.55,3.55 0 0 1 1,-0.2 v 0 a -0.78,0.78 0 0 1 0.1,0.8 -1.27,1.27 0 0 0 -0.1,0.6 -21.05,21.05 0 0 1 2.5,0.2 c 1.2,0.1 2.5,0.3 3.8,0.3 h 0.1 v 0.1 c -0.1,0.3 -0.5,0.5 -0.9,0.7 -0.1,0 -0.1,0.1 -0.2,0.1 a -9.68,9.68 0 0 0 2.9,-0.2 -11.14,11.14 0 0 1 1.7,-0.2 h 0.1 l -0.1,0.1 a -3.41,3.41 0 0 1 -1.9,1.3 -8.25,8.25 0 0 0 3.4,-0.8 v 0 a -4.74,4.74 0 0 1 0.8,1.9 h 6 a -15.12,15.12 0 0 0 4.1,-1.4 c 0.7,-0.3 1.3,-0.6 1.9,-0.8 -8.7,-2.6 -18.5,-5.7 -29,-14.4 -4,-3.4 -14.2,-3.6 -16.8,-3.6 h -5.199996 c 0,0.4 0.4,0.6 0.8,0.8 a -1,1 0 0 1 0.5,0.4 v 0 c 0,0.4 -0.5,0.6 -0.9,0.8 -0.1,0 -0.1,0.1 -0.2,0.1 h 0.1 a -4.84,4.84 0 0 0 2.1,1.5 z m -5.6,42.4 0.3,0.1 v 0 c 1.4,0.4 2.8,0.7 4.2,1 a -29.85,29.85 0 0 1 6.299996,1.8 l 2.4,-0.7 a -16.58,16.58 0 0 1 -3.5,-1.8 l -0.6,-0.3 -0.2,-0.1 v 0 c -0.5,-0.3 -1,-0.5 -1.499996,-0.8 h -0.1 l 0.1,-0.1 a -1.7,1.7 0 0 1 0.699996,-0.4 v 0 a -3,3 0 0 0 1.9,0 -43.37,43.37 0 0 1 -7.299996,-6.6 v 0 c -1.2,-1.5 -1.8,-2.6 -1.8,-3.4 a -4.35,4.35 0 0 0 -0.7,0.6 c -0.8,0.6 -1.3,1.1 -1.3,2 a -1.85,1.85 0 0 0 0.2,0.7 v 0 a -6.89,6.89 0 0 0 0.4,1 -9.72,9.72 0 0 1 1,3.7 -3,3 0 0 1 0.5,-0.7 v 0 a -3.71,3.71 0 0 1 1.3,1.7 c 0.1,0.2 0.2,0.3 0.3,0.5 v 0.1 h -0.1 c -0.4,0.1 -1.2,-0.4 -2.2,-0.9 v 0 a -0.1,0.1 0 0 1 -0.1,-0.1 -12.76,12.76 0 0 0 -2.5,-1.1 -1.42,1.42 0 0 1 -0.2,0.6 -3.86,3.86 0 0 0 -0.3,2.1 -20.48,20.48 0 0 0 2.8,1.1 z"
     id="path8" />
  <path
     class="cls-2"
     d="M45.9,272.4c.2,0,.2-.2.2-.3a3.41,3.41,0,0,0-.7-1.9,3.57,3.57,0,0,0-2.7-1.2,4.67,4.67,0,0,0-3.4,1.3,4,4,0,0,0-1.4,3.2,4.29,4.29,0,0,0,4.3,4.4,4.14,4.14,0,0,0,3-1.1c.1-.1.7-.6.7-.8a.35.35,0,0,0-.1-.2A4.1,4.1,0,0,1,43,277a3.71,3.71,0,0,1-3.7-4c0-.6.2-.6.8-.6Zm-5.7-.5c-.2,0-.6.1-.6-.2a2.22,2.22,0,0,1,.5-1.1,3.13,3.13,0,0,1,2.5-1.3,2.27,2.27,0,0,1,1.6.6,1.61,1.61,0,0,1,.5,1.1.77.77,0,0,1-.7.8,16.35,16.35,0,0,1-2.2.2l-1.6-.1Z"
     transform="translate(0)"
     id="path10" />
  <path
     class="cls-2"
     d="M50.1,269.3c0-.1,0-.3-.2-.3s-.2.2-.3.2a4.35,4.35,0,0,1-1.6,1c-.2.1-.4.1-.4.3a.22.22,0,0,0,.2.2H48a.85.85,0,0,1,.6.2c.2.2.2,1,.2,1.2v3.6c0,.8.2,1.5-.9,1.6-.2,0-.5,0-.5.3s.1.2.3.2c.6,0,1.2-.1,1.8-.1s1.2.1,1.8.1a.22.22,0,0,0,.2-.2c0-.2-.3-.2-.5-.2-1-.1-.9-.7-.9-1.6v-6.5Zm-.7-2c.6,0,.8-.4.8-1a.82.82,0,0,0-.8-.9,1,1,0,0,0-.9,1c.1.5.4.9.9.9Z"
     transform="translate(0)"
     id="path12" />
  <path
     class="cls-1"
     d="M53.6,275.6c0,.8.2,1.5-.9,1.6-.2,0-.5,0-.5.3s.1.2.3.2c.6,0,1.2-.1,1.8-.1s1.2.1,1.8.1a.22.22,0,0,0,.2-.2c0-.2-.3-.2-.5-.2-1-.1-.9-.7-.9-1.6v-3.2a2.33,2.33,0,0,1,.6-1.8,2.73,2.73,0,0,1,1.9-.8,2.14,2.14,0,0,1,1.8.9,4,4,0,0,1,.3,1.9v3c0,.8.2,1.5-.9,1.6-.2,0-.5,0-.5.3s.1.2.3.2c.6,0,1.2-.1,1.8-.1s1.2.1,1.8.1a.22.22,0,0,0,.2-.2c0-.2-.3-.2-.5-.2-1-.1-.9-.7-.9-1.6v-3a4,4,0,0,0-.6-2.6,2.57,2.57,0,0,0-2.2-1c-1.7,0-2.8,1.6-3.1,1.6v-1.2c0-.1,0-.3-.2-.3s-.2.2-.3.2a4.35,4.35,0,0,1-1.6,1c-.2.1-.4.1-.4.3a.22.22,0,0,0,.2.2h.2a.85.85,0,0,1,.6.2c.2.2.2,1,.2,1.2v3.2Z"
     transform="translate(0)"
     id="path14" />
  <path
     class="cls-1"
     d="M65.3,270.5c0-.7,0-.7.7-.7h1.3c.2,0,.5.1.5-.2s0-.3-.3-.3H66c-.8,0-.7,0-.7-.9v-1c0-.9.2-2.6,1.4-2.6.6,0,.9.4,1.3.8.1.1.4.4.6.4s.5-.9.5-1.1c0-.5-1.3-.7-1.6-.7a4.08,4.08,0,0,0-2.7,1.3A4.63,4.63,0,0,0,64,268c0,.6,0,1.1-.6,1.3-.1,0-.5.1-.5.3s.4.2.6.2c.6,0,.6.1.6.7v5.1c0,.8.1,1.5-.9,1.6-.2,0-.5,0-.5.3s.1.2.2.2c.6,0,1.2-.1,1.8-.1s1.2.1,1.9.1c.1,0,.2,0,.2-.2s-.3-.2-.5-.2c-1-.1-.9-.7-.9-1.6v-5.2Z"
     transform="translate(0)"
     id="path16" />
  <path
     class="cls-2"
     d="M71.6,273.6c-1.1.5-2.8,1.3-2.8,2.7a1.61,1.61,0,0,0,1.8,1.5c1.6,0,2.9-1.4,3.1-1.4s.4,1.3,1.3,1.3a3.36,3.36,0,0,0,1.4-.5c.1-.1.5-.4.5-.6a.35.35,0,0,0-.1-.2c-.2,0-.4.5-.9.5-.7,0-.7-1.1-.7-1.5v-4.5c0-.5.1-1-.4-1.4a2.46,2.46,0,0,0-1.7-.5,5.33,5.33,0,0,0-3.4,1.3,1.83,1.83,0,0,0-.8,1.3c0,.2.1.2.2.2s.6-.2.8-.2.4-.4.5-.7a2.17,2.17,0,0,1,2.2-1.6c1.2,0,1.2.8,1.2,1.7v.8c0,.7,0,.7-.7,1.1l-1.5.7Zm1.8-.5c.1,0,.1-.1.2-.1s.1.5.1.5v1.1c0,.6,0,1-.5,1.4a2.5,2.5,0,0,1-1.8.8,1.16,1.16,0,0,1-1.3-1.1c0-.9.7-1.4,1.5-1.8l1.8-.8Z"
     transform="translate(0)"
     id="path18" />
  <path
     class="cls-1"
     d="M85.3,270.4c0-.2.1-.7-.1-.8a4.65,4.65,0,0,0-2.3-.6,4.85,4.85,0,0,0-4.9,4.6,4.25,4.25,0,0,0,4.3,4.2,4.68,4.68,0,0,0,2.8-.9c.1-.1.6-.5.6-.7a.35.35,0,0,0-.1-.2c-.1,0-.2.2-.3.2a3,3,0,0,1-2.2.8,3.76,3.76,0,0,1-3.5-3.9A4.1,4.1,0,0,1,81,270a3.26,3.26,0,0,1,1.9-.8c1.5,0,1.9,2.1,2.5,2.1a7.75,7.75,0,0,1-.1-.9Z"
     transform="translate(0)"
     id="path20" />
  <path
     class="cls-1"
     d="M89.1,264.5c0-.2,0-.3-.2-.3a.76.76,0,0,0-.4.2,5.78,5.78,0,0,1-1.7.6c-.1,0-.3.1-.3.2s.3.2.5.2c.9,0,.7.8.7,1.5v8.7c0,.8.2,1.5-.9,1.6-.2,0-.5,0-.5.3s.1.2.3.2c.6,0,1.2-.1,1.8-.1s1.2.1,1.8.1a.22.22,0,0,0,.2-.2c0-.2-.3-.2-.5-.2-1-.1-.9-.7-.9-1.6v-3.5a2,2,0,0,1,.6-1.8,2.73,2.73,0,0,1,1.9-.8,2,2,0,0,1,1.8.9,4,4,0,0,1,.3,1.9v3.3c0,.8.2,1.5-.9,1.6-.2,0-.5,0-.5.3s.1.2.3.2c.6,0,1.2-.1,1.8-.1s1.2.1,1.8.1a.22.22,0,0,0,.2-.2c0-.2-.3-.2-.5-.2-1-.1-.9-.7-.9-1.6v-3a5,5,0,0,0-.5-2.7,2.62,2.62,0,0,0-2.2-.9,3.63,3.63,0,0,0-2.8,1.2.35.35,0,0,1-.2.1c-.1,0-.1-.1-.1-.2v-5.8Z"
     transform="translate(0)"
     id="path22" />
  <path
     class="cls-1"
     d="M105.6,270.5c0-.7,0-.7.7-.7h1.3c.2,0,.5.1.5-.2s0-.3-.3-.3h-1.5c-.8,0-.7,0-.7-.9v-1c0-.9.2-2.6,1.4-2.6a2,2,0,0,1,1.3.8c.1.1.4.4.5.4s.5-.9.5-1.1c0-.5-1.3-.7-1.6-.7a4.08,4.08,0,0,0-2.7,1.3,4.63,4.63,0,0,0-.8,2.5c0,.6,0,1.1-.6,1.3-.1,0-.5.1-.5.3s.4.2.6.2c.6,0,.5.1.5.7v5.1c0,.8.1,1.5-.9,1.6-.2,0-.5,0-.5.3s.1.2.2.2c.6,0,1.2-.1,1.8-.1s1.2.1,1.9.1c.1,0,.2,0,.2-.2s-.3-.2-.5-.2c-1-.1-.9-.7-.9-1.6l.1-5.2Z"
     transform="translate(0)"
     id="path24" />
  <path
     class="cls-2"
     d="M111.8,273.6c-1,.5-2.8,1.3-2.8,2.7a1.61,1.61,0,0,0,1.8,1.5c1.6,0,2.9-1.4,3.1-1.4s.4,1.3,1.3,1.3a3.36,3.36,0,0,0,1.4-.5c.1-.1.5-.4.5-.6a.35.35,0,0,0-.1-.2c-.2,0-.4.5-.9.5-.7,0-.7-1.1-.7-1.5v-4.5c0-.5.1-1-.4-1.4a2.46,2.46,0,0,0-1.7-.5,5.33,5.33,0,0,0-3.4,1.3,1.83,1.83,0,0,0-.8,1.3c0,.2.1.2.2.2s.6-.2.8-.2.4-.4.5-.7a2.17,2.17,0,0,1,2.2-1.6c1.2,0,1.2.8,1.2,1.7v.8c0,.7,0,.7-.7,1.1l-1.5.7Zm1.9-.5c.1,0,.1-.1.2-.1s.1.5.1.5v1.1c0,.6,0,1-.5,1.4a2.5,2.5,0,0,1-1.8.8,1.16,1.16,0,0,1-1.3-1.1c0-.9.7-1.4,1.5-1.8l1.8-.8Z"
     transform="translate(0)"
     id="path26" />
  <path
     class="cls-1"
     d="M118.1,276.5c0,.3,0,.5.3.7a7.06,7.06,0,0,0,2.4.6c1.6,0,3.6-1,3.6-2.8,0-3.1-4.8-2.1-4.8-4.3,0-.9,1-1.4,1.8-1.4,2,0,1.8,1.8,2.3,1.8.3,0,.2-.8.2-.9,0-.3.1-.7-.2-.8a6.93,6.93,0,0,0-2-.3,4,4,0,0,0-2.2.6,2.1,2.1,0,0,0-1,1.8c0,1.5,1.7,2,2.9,2.4.9.3,1.8.7,1.8,1.8a2.13,2.13,0,0,1-2.3,1.9c-2.6,0-1.8-2.6-2.5-2.6-.2,0-.2.3-.2.4l-.1,1.1Z"
     transform="translate(0)"
     id="path28" />
  <path
     class="cls-1"
     d="M132.9,269.9a1.33,1.33,0,0,0,.3-.5c0-.2-.2-.1-.3-.1h-4.6c-.5,0-1,0-1-.5,0-.1,0-.3-.2-.3s-.3.4-.3.5l-.5,1.4a2.27,2.27,0,0,1-.1.4.22.22,0,0,0,.2.2c.1,0,.2-.2.3-.3a2.72,2.72,0,0,1,1-.8,3.89,3.89,0,0,1,1.5-.2h1.9c.1,0,.3,0,.3.1s-.2.3-.2.4l-5,6.7c0,.1-.3.3-.3.4,0,.3.5.2.7.2h6.5c.4,0,.3-.4.3-.7v-.9c0-.1.1-.7-.2-.7s-.2.2-.3.4a1.86,1.86,0,0,1-.9,1.2,4,4,0,0,1-1.9.3h-1.6c-.1,0-.7,0-.7-.2a1.33,1.33,0,0,1,.3-.5l4.8-6.5Z"
     transform="translate(0)"
     id="path30" />
  <path
     class="cls-2"
     d="M137.1,269.3c0-.1,0-.3-.2-.3s-.2.2-.3.2a4.35,4.35,0,0,1-1.6,1c-.2.1-.4.1-.4.3a.22.22,0,0,0,.2.2h.2c.1,0,.4,0,.5.2s.2,1,.2,1.2v3.6c0,.8.2,1.5-.9,1.6-.2,0-.5,0-.5.3s.1.2.3.2c.6,0,1.2-.1,1.8-.1s1.2.1,1.8.1a.22.22,0,0,0,.2-.2c0-.2-.3-.2-.5-.2-1-.1-.9-.7-.9-1.6l.1-6.5Zm-.7-2c.5,0,.8-.4.8-1a.82.82,0,0,0-.8-.9,1,1,0,0,0-.9,1c.1.5.4.9.9.9Z"
     transform="translate(0)"
     id="path32" />
  <path
     class="cls-1"
     d="M140.5,275.6c0,.8.2,1.5-.9,1.6-.2,0-.5,0-.5.3s.1.2.3.2c.6,0,1.2-.1,1.8-.1s1.2.1,1.8.1a.22.22,0,0,0,.2-.2c0-.2-.3-.2-.5-.2-1-.1-.9-.7-.9-1.6v-3.2a2.33,2.33,0,0,1,.6-1.8,2.73,2.73,0,0,1,1.9-.8,2.14,2.14,0,0,1,1.8.9,4,4,0,0,1,.3,1.9v3c0,.8.2,1.5-.9,1.6-.2,0-.5,0-.5.3s.1.2.3.2c.6,0,1.2-.1,1.8-.1s1.2.1,1.8.1a.22.22,0,0,0,.2-.2c0-.2-.3-.2-.5-.2-1-.1-.9-.7-.9-1.6v-3a4,4,0,0,0-.6-2.6,2.57,2.57,0,0,0-2.2-1c-1.7,0-2.8,1.6-3.1,1.6v-1.2c0-.1,0-.3-.2-.3s-.2.2-.3.2a4.35,4.35,0,0,1-1.6,1c-.2.1-.4.1-.4.3a.22.22,0,0,0,.2.2h.2c.1,0,.4,0,.5.2s.2,1,.2,1.2l.1,3.2Z"
     transform="translate(0)"
     id="path34" />
  <path
     class="cls-2"
     d="M152.6,269.3c0-.1,0-.3-.2-.3s-.2.2-.3.2a4.35,4.35,0,0,1-1.6,1c-.2.1-.4.1-.4.3a.22.22,0,0,0,.2.2h.2c.1,0,.4,0,.5.2s.2,1,.2,1.2v3.6c0,.8.2,1.5-.9,1.6-.2,0-.5,0-.5.3s.1.2.3.2c.6,0,1.2-.1,1.8-.1s1.2.1,1.8.1a.22.22,0,0,0,.2-.2c0-.2-.3-.2-.5-.2-1-.1-.9-.7-.9-1.6l.1-6.5Zm-.6-2c.5,0,.8-.4.8-1a.82.82,0,0,0-.8-.9,1,1,0,0,0-.9,1,.84.84,0,0,0,.9.9Z"
     transform="translate(0)"
     id="path36" />
  <path
     class="cls-2"
     d="M162.9,272.4c.2,0,.2-.2.2-.3a3.41,3.41,0,0,0-.7-1.9,3.57,3.57,0,0,0-2.7-1.2,4.67,4.67,0,0,0-3.4,1.3,4,4,0,0,0-1.4,3.2,4.29,4.29,0,0,0,4.3,4.4,4.14,4.14,0,0,0,3-1.1c.1-.1.7-.6.7-.8a.35.35,0,0,0-.1-.2A4.42,4.42,0,0,1,160,277a3.71,3.71,0,0,1-3.7-4c0-.6.2-.6.8-.6Zm-5.7-.5c-.2,0-.6.1-.6-.2a2.22,2.22,0,0,1,.5-1.1,3.13,3.13,0,0,1,2.5-1.3,2.27,2.27,0,0,1,1.6.6,1.61,1.61,0,0,1,.5,1.1.77.77,0,0,1-.7.8,15,15,0,0,1-2.2.2l-1.6-.1Z"
     transform="translate(0)"
     id="path38" />
  <path
     class="cls-1"
     d="M165.6,275.6c0,.8.2,1.5-.9,1.6-.2,0-.5,0-.5.3s.1.2.3.2c.6,0,1.2-.1,1.8-.1s1.2.1,1.8.1a.22.22,0,0,0,.2-.2c0-.2-.3-.2-.5-.2-1-.1-.9-.7-.9-1.6v-3a3.13,3.13,0,0,1,.4-1.9,1.26,1.26,0,0,1,1-.7c.5,0,.6.7,1.2.7a.74.74,0,0,0,.8-.8c0-.6-.5-.9-1.1-.9-1.3,0-2,1.5-2.2,1.5s-.1-.3-.1-.4v-.9c0-.1,0-.3-.2-.3s-.2.2-.3.2a4.35,4.35,0,0,1-1.6,1c-.2.1-.4.1-.4.3a.22.22,0,0,0,.2.2h.2c.1,0,.4,0,.5.2s.2,1,.2,1.2l.1,3.5Z"
     transform="translate(0)"
     id="path40" />
  <path
     class="cls-2"
     d="M178.9,272.4c.2,0,.2-.2.2-.3a3.41,3.41,0,0,0-.7-1.9,3.57,3.57,0,0,0-2.7-1.2,4.67,4.67,0,0,0-3.4,1.3,4,4,0,0,0-1.4,3.2,4.29,4.29,0,0,0,4.3,4.4,4.14,4.14,0,0,0,3-1.1c.1-.1.7-.6.7-.8a.35.35,0,0,0-.1-.2A4.42,4.42,0,0,1,176,277a3.71,3.71,0,0,1-3.7-4c0-.6.2-.6.8-.6Zm-5.7-.5c-.2,0-.6.1-.6-.2a2.22,2.22,0,0,1,.5-1.1,3.13,3.13,0,0,1,2.5-1.3,2.27,2.27,0,0,1,1.6.6,1.61,1.61,0,0,1,.5,1.1.77.77,0,0,1-.7.8,15,15,0,0,1-2.2.2l-1.6-.1Z"
     transform="translate(0)"
     id="path42" />
  <path
     class="cls-1"
     d="M181.6,275.6c0,.8.2,1.5-.9,1.6-.2,0-.5,0-.5.3s.1.2.3.2c.6,0,1.2-.1,1.8-.1s1.2.1,1.8.1a.22.22,0,0,0,.2-.2c0-.2-.3-.2-.5-.2-1-.1-.9-.7-.9-1.6v-3.2a2.33,2.33,0,0,1,.6-1.8,2.73,2.73,0,0,1,1.9-.8,2.14,2.14,0,0,1,1.8.9,4,4,0,0,1,.3,1.9v3c0,.8.2,1.5-.9,1.6-.2,0-.5,0-.5.3s.1.2.3.2c.6,0,1.2-.1,1.8-.1s1.2.1,1.8.1a.22.22,0,0,0,.2-.2c0-.2-.3-.2-.5-.2-1-.1-.9-.7-.9-1.6v-3a4,4,0,0,0-.6-2.6,2.57,2.57,0,0,0-2.2-1c-1.7,0-2.8,1.6-3.1,1.6v-1.2c0-.1,0-.3-.2-.3s-.2.2-.3.2a4.35,4.35,0,0,1-1.6,1c-.2.1-.4.1-.4.3a.22.22,0,0,0,.2.2h.2c.1,0,.4,0,.5.2s.2,1,.2,1.2l.1,3.2Z"
     transform="translate(0)"
     id="path44" />
  <path
     class="cls-2"
     d="M199.5,264.5c0-.2,0-.3-.2-.3a.76.76,0,0,0-.4.2,5.78,5.78,0,0,1-1.7.6c-.1,0-.3.1-.3.2s.3.2.5.2c.9,0,.7.8.7,1.5v1.8c0,.1.1.7-.1.7s-.3-.1-.4-.1a6.47,6.47,0,0,0-2-.4,4.61,4.61,0,0,0-4.5,4.5,4.25,4.25,0,0,0,4.1,4.4c1.5,0,2.6-1.3,2.9-1.3s.2.5.2.6,0,.5.2.5a.76.76,0,0,0,.4-.2l1.5-.6c.2-.1.3-.1.3-.3v-.2c0-.1,0-.2-.1-.2s-.5.7-.9.7-.3-.8-.3-1V264.5Zm-1.3,10.6c0,.4.1.7-.2,1a3.1,3.1,0,0,1-2.2.9c-2.1,0-3.3-2-3.3-3.9a3.63,3.63,0,0,1,3.3-3.8,3,3,0,0,1,2,.6,2.38,2.38,0,0,1,.5,1.8l-.1,3.4Z"
     transform="translate(0)"
     id="path46" />
  <path
     class="cls-2"
     d="M25.5,254.6c0,1.2.1,1.6-1.2,1.6-.2,0-.5,0-.5.2s.1.2.3.2c.7,0,1.4-.1,2.2-.1s1.4.1,2.1.1c.2,0,.3,0,.3-.2s-.3-.2-.5-.2c-1.3,0-1.2-.4-1.2-1.6v-2.9a2.2,2.2,0,0,1,.1-.8.6.6,0,0,1,.4-.1c1.4,0,1.4.2,2.1,1.5l1.9,3.7c.1.3.3.7.6.7h2c.1,0,.3,0,.3-.2s-.3-.3-.5-.3c-.8,0-1.1-.7-1.5-1.4l-1.5-3c-.3-.5-.6-1.2-1.2-1.2a3.08,3.08,0,0,0,3-3c0-2-1.8-2.9-3.6-2.9-1.1,0-2.1.1-3.2.1-.6,0-1.2-.1-1.9-.1a.27.27,0,0,0-.3.3c0,.2.3.2.5.2,1.3,0,1.2.4,1.2,1.6l.1,7.8Zm1.5-8c0-1.3,0-1.5,1.5-1.5a2.47,2.47,0,0,1,2.7,2.7,2,2,0,0,1-.9,1.9,3.92,3.92,0,0,1-2.4.6c-.3,0-1,.1-1-.3v-3.4Z"
     transform="translate(0)"
     id="path48" />
  <path
     class="cls-2"
     d="M37.8,252.6c-1.1.5-2.8,1.3-2.8,2.7a1.61,1.61,0,0,0,1.8,1.5c1.6,0,2.9-1.4,3.1-1.4s.4,1.3,1.3,1.3a3.36,3.36,0,0,0,1.4-.5c.1-.1.5-.4.5-.6a.35.35,0,0,0-.1-.2c-.2,0-.4.5-.9.5-.7,0-.7-1.1-.7-1.5v-4.5c0-.5.1-1-.4-1.4a2.46,2.46,0,0,0-1.7-.5,5.33,5.33,0,0,0-3.4,1.3,1.83,1.83,0,0,0-.8,1.3c0,.2.1.2.2.2s.6-.2.8-.2.4-.4.5-.7a2.17,2.17,0,0,1,2.2-1.6c1.2,0,1.2.8,1.2,1.7v.8c0,.7,0,.7-.7,1.1l-1.5.7Zm1.8-.5c.1,0,.1-.1.2-.1s.1.5.1.5v1.1c0,.6,0,1-.5,1.4a2.5,2.5,0,0,1-1.8.8,1.16,1.16,0,0,1-1.3-1.1c0-.9.7-1.4,1.5-1.8l1.8-.8Z"
     transform="translate(0)"
     id="path50" />
  <path
     class="cls-1"
     d="M44.1,255.5c0,.3,0,.5.3.7a7.06,7.06,0,0,0,2.4.6c1.6,0,3.6-1,3.6-2.8,0-3.1-4.8-2.1-4.8-4.3,0-.9,1-1.4,1.8-1.4,2.1,0,1.8,1.8,2.3,1.8.3,0,.2-.8.2-.9,0-.3.1-.7-.2-.8a6.93,6.93,0,0,0-2-.3,4,4,0,0,0-2.2.6,2.1,2.1,0,0,0-1,1.8c0,1.5,1.7,2,2.9,2.4.9.3,1.8.7,1.8,1.8a2.13,2.13,0,0,1-2.3,1.9c-2.6,0-1.8-2.6-2.5-2.6-.2,0-.2.3-.2.4l-.1,1.1Z"
     transform="translate(0)"
     id="path52" />
  <path
     class="cls-1"
     d="M51.7,255.5c0,.3,0,.5.3.7a7.06,7.06,0,0,0,2.4.6c1.6,0,3.6-1,3.6-2.8,0-3.1-4.8-2.1-4.8-4.3,0-.9,1-1.4,1.8-1.4,2.1,0,1.8,1.8,2.3,1.8.3,0,.2-.8.2-.9,0-.3.1-.7-.2-.8a6.93,6.93,0,0,0-2-.3,4,4,0,0,0-2.2.6,2.1,2.1,0,0,0-1,1.8c0,1.5,1.7,2,2.9,2.4.9.3,1.8.7,1.8,1.8a2.13,2.13,0,0,1-2.3,1.9c-2.6,0-1.8-2.6-2.5-2.6-.2,0-.2.3-.2.4l-.1,1.1Z"
     transform="translate(0)"
     id="path54" />
  <path
     class="cls-2"
     d="M67.2,251.4c.2,0,.2-.2.2-.3a3.41,3.41,0,0,0-.7-1.9A3.57,3.57,0,0,0,64,248a4.67,4.67,0,0,0-3.4,1.3,4,4,0,0,0-1.4,3.2,4.29,4.29,0,0,0,4.3,4.4,4.14,4.14,0,0,0,3-1.1c.1-.1.7-.6.7-.8a.35.35,0,0,0-.1-.2,4.1,4.1,0,0,1-2.8,1.2,3.71,3.71,0,0,1-3.7-4c0-.6.2-.6.8-.6Zm-5.7-.5c-.2,0-.6.1-.6-.2a2.22,2.22,0,0,1,.5-1.1,3.13,3.13,0,0,1,2.5-1.3,2.27,2.27,0,0,1,1.6.6A1.61,1.61,0,0,1,66,250a.77.77,0,0,1-.7.8,16.35,16.35,0,0,1-2.2.2l-1.6-.1Z"
     transform="translate(0)"
     id="path56" />
  <polygon
     class="cls-1"
     points="73.4 252.7 73.7 251.8 68.9 251.8 68.6 252.7 73.4 252.7"
     id="polygon58" />
  <path
     class="cls-1"
     d="M89,248.7c0-.2.1-.5-.2-.5H86.6c-.1,0-.3,0-.3.1s.4.2.5.2c1,0,.8.7.8,1.5v3.6c0,.5.1,1-.3,1.4a2.52,2.52,0,0,1-2,.9,2.08,2.08,0,0,1-1.9-.9,4.88,4.88,0,0,1-.3-2.1v-4.1c0-.3.1-.7-.3-.7H80.7c-.1,0-.2,0-.2.1,0,.3.3.3.5.3,1,0,.9.7.9,1.5v2.9a4.31,4.31,0,0,0,.6,2.7,2.66,2.66,0,0,0,2.2,1.1c1.7,0,2.6-1.3,2.9-1.3s.1.7.1.8v.5c0,.1,0,.2.1.2a.35.35,0,0,0,.2-.1,5.45,5.45,0,0,1,1.9-.8c.1,0,.4-.1.4-.2a.22.22,0,0,0-.2-.2h-.2c-.9.1-.8-.5-.8-1.2v-5.7Z"
     transform="translate(0)"
     id="path60" />
  <path
     class="cls-1"
     d="M92.7,254.6c0,.8.2,1.5-.9,1.6-.2,0-.5,0-.5.3s.1.2.3.2c.6,0,1.2-.1,1.8-.1s1.2.1,1.8.1a.22.22,0,0,0,.2-.2c0-.2-.3-.2-.5-.2-1-.1-.9-.7-.9-1.6v-3.2a2.33,2.33,0,0,1,.6-1.8,2.73,2.73,0,0,1,1.9-.8,2.14,2.14,0,0,1,1.8.9,4,4,0,0,1,.3,1.9v3c0,.8.2,1.5-.9,1.6-.2,0-.5,0-.5.3s.1.2.3.2c.6,0,1.2-.1,1.8-.1s1.2.1,1.8.1a.22.22,0,0,0,.2-.2c0-.2-.3-.2-.5-.2-1-.1-.9-.7-.9-1.6v-3a4,4,0,0,0-.6-2.6,2.57,2.57,0,0,0-2.2-1c-1.7,0-2.8,1.6-3.1,1.6v-1.2c0-.1,0-.3-.2-.3s-.2.2-.3.2a4.35,4.35,0,0,1-1.6,1c-.2.1-.4.1-.4.3a.22.22,0,0,0,.2.2H92c.1,0,.4,0,.5.2s.2,1,.2,1.2v3.2Z"
     transform="translate(0)"
     id="path62" />
  <path
     class="cls-2"
     d="M110.6,243.5c0-.2,0-.3-.2-.3a.76.76,0,0,0-.4.2,5.78,5.78,0,0,1-1.7.6c-.1,0-.3.1-.3.2s.3.2.5.2c.9,0,.7.8.7,1.5v1.8c0,.1.1.7-.1.7s-.3-.1-.4-.1a6.47,6.47,0,0,0-2-.4,4.61,4.61,0,0,0-4.5,4.5,4.25,4.25,0,0,0,4.1,4.4c1.5,0,2.6-1.3,2.9-1.3s.2.5.2.6,0,.5.2.5a.76.76,0,0,0,.4-.2l1.5-.6c.2-.1.3-.1.3-.3v-.2c0-.1,0-.2-.1-.2s-.5.7-.9.7-.3-.8-.3-1l.1-11.3Zm-1.3,10.6c0,.4.1.7-.2,1a3.1,3.1,0,0,1-2.2.9c-2.1,0-3.3-2-3.3-3.9a3.63,3.63,0,0,1,3.3-3.8,3,3,0,0,1,2,.6,2.38,2.38,0,0,1,.5,1.8l-.1,3.4Z"
     transform="translate(0)"
     id="path64" />
  <path
     class="cls-1"
     d="M119,256.1c-.1.1-.1.1-.1.2,0,.3.5.2.7.2h8.5c.9,0,.8-.1.8-1.1v-1.5c0-.2.1-.6-.2-.6s-.2.3-.2.5c-.2,1.9-1.4,2.2-3.1,2.2h-3.6c-.1,0-.6.1-.6-.2a.85.85,0,0,1,.3-.5l7.3-10.2c.1-.1.1-.1.1-.2s-.3-.2-.4-.2h-6.3a2.2,2.2,0,0,1-.8-.1.52.52,0,0,1-.2-.4.27.27,0,0,0-.3-.3c-.2,0-.3.4-.3.6l-.5,2c0,.1-.1.4-.1.5a.22.22,0,0,0,.2.2c.5,0,.4-2,3.2-2h2.9c.1,0,.6,0,.6.2s-.1.3-.2.5L119,256.1Z"
     transform="translate(0)"
     id="path66" />
  <path
     class="cls-2"
     d="M132.9,248.3c0-.1,0-.3-.2-.3s-.2.2-.3.2a4.35,4.35,0,0,1-1.6,1c-.2.1-.4.1-.4.3a.22.22,0,0,0,.2.2h.2c.1,0,.4,0,.5.2s.2,1,.2,1.2v3.6c0,.8.2,1.5-.9,1.6-.2,0-.5,0-.5.3s.1.2.3.2c.6,0,1.2-.1,1.8-.1s1.2.1,1.8.1a.22.22,0,0,0,.2-.2c0-.2-.3-.2-.5-.2-1-.1-.9-.7-.9-1.6l.1-6.5Zm-.7-2c.5,0,.8-.4.8-1a.82.82,0,0,0-.8-.9,1,1,0,0,0-.9,1c.1.5.4.9.9.9Z"
     transform="translate(0)"
     id="path68" />
  <path
     class="cls-2"
     d="M143.1,251.4c.2,0,.2-.2.2-.3a3.41,3.41,0,0,0-.7-1.9,3.57,3.57,0,0,0-2.7-1.2,4.67,4.67,0,0,0-3.4,1.3,4,4,0,0,0-1.4,3.2,4.29,4.29,0,0,0,4.3,4.4,4.14,4.14,0,0,0,3-1.1c.1-.1.7-.6.7-.8a.35.35,0,0,0-.1-.2,4.42,4.42,0,0,1-2.8,1.2,3.71,3.71,0,0,1-3.7-4c0-.6.2-.6.8-.6Zm-5.7-.5c-.2,0-.6.1-.6-.2a2.22,2.22,0,0,1,.5-1.1,3.13,3.13,0,0,1,2.5-1.3,2.27,2.27,0,0,1,1.6.6,1.61,1.61,0,0,1,.5,1.1.77.77,0,0,1-.7.8,15,15,0,0,1-2.2.2l-1.6-.1Z"
     transform="translate(0)"
     id="path70" />
  <path
     class="cls-1"
     d="M145.8,254.6c0,.8.2,1.5-.9,1.6-.2,0-.5,0-.5.3s.1.2.3.2c.6,0,1.2-.1,1.8-.1s1.2.1,1.8.1a.22.22,0,0,0,.2-.2c0-.2-.3-.2-.5-.2-1-.1-.9-.7-.9-1.6v-3a3.13,3.13,0,0,1,.4-1.9,1.26,1.26,0,0,1,1-.7c.5,0,.6.7,1.2.7a.74.74,0,0,0,.8-.8c0-.6-.5-.9-1.1-.9-1.3,0-2,1.5-2.2,1.5s-.1-.3-.1-.4v-.9c0-.1,0-.3-.2-.3s-.2.2-.3.2a4.35,4.35,0,0,1-1.6,1c-.2.1-.4.1-.4.3a.22.22,0,0,0,.2.2h.2c.1,0,.4,0,.5.2s.2,1,.2,1.2l.1,3.5Z"
     transform="translate(0)"
     id="path72" />
  <path
     class="cls-2"
     d="M158.1,248.6a2,2,0,0,1-1.1-.2,4.14,4.14,0,0,0-1.9-.5c-1.8,0-3.6,1.1-3.6,3.1s2.1,2.6,2.1,2.8-1.7.8-1.9.9a.22.22,0,0,0-.2.2c0,.2.9,1,1.1,1.1s.4.3.4.5-.5.4-.6.5l-.5.3a1.66,1.66,0,0,0-1,1.4,1.93,1.93,0,0,0,1.3,1.6,5.34,5.34,0,0,0,2.5.5c2,0,5.2-.9,5.2-3.4a2.14,2.14,0,0,0-1.2-1.7,4.09,4.09,0,0,0-2.2-.3h-2c-.3,0-1.1-.2-1.1-.6s.4-.4.6-.5a7,7,0,0,1,1.4-.3,3.7,3.7,0,0,0,2.7-.9,2.78,2.78,0,0,0,1-2,4.3,4.3,0,0,0-.2-1.2c0-.1-.1-.2-.1-.3s.7-.2.8-.2h.7c.1-.1,0-.2,0-.3,0-.5-.2-.4-.7-.4l-1.5-.1Zm-2.2,8c1,0,2.5.3,2.5,1.6,0,1.7-2.3,2.2-3.6,2.2a3.2,3.2,0,0,1-1.9-.5,1.72,1.72,0,0,1-.9-1.5c0-.9.9-1.4,1.6-1.8Zm-1-2.9c-1.4,0-2.1-1.5-2.1-2.7s.8-2.7,2.2-2.7,2.1,1.5,2.1,2.6c.1,1.4-.6,2.8-2.2,2.8Z"
     transform="translate(0)"
     id="path74" />
  <path
     class="cls-2"
     d="M168.6,251.4c.2,0,.2-.2.2-.3a3.41,3.41,0,0,0-.7-1.9,3.57,3.57,0,0,0-2.7-1.2,4.67,4.67,0,0,0-3.4,1.3,4,4,0,0,0-1.4,3.2,4.29,4.29,0,0,0,4.3,4.4,4.14,4.14,0,0,0,3-1.1c.1-.1.7-.6.7-.8a.35.35,0,0,0-.1-.2,4.42,4.42,0,0,1-2.8,1.2,3.71,3.71,0,0,1-3.7-4c0-.6.2-.6.8-.6Zm-5.7-.5c-.2,0-.6.1-.6-.2a2.22,2.22,0,0,1,.5-1.1,3.13,3.13,0,0,1,2.5-1.3,2.27,2.27,0,0,1,1.6.6,1.61,1.61,0,0,1,.5,1.1.77.77,0,0,1-.7.8,15,15,0,0,1-2.2.2l-1.6-.1Z"
     transform="translate(0)"
     id="path76" />
  <path
     class="cls-1"
     d="M172.5,249.5c0-.7,0-.7.7-.7h1.3c.2,0,.5.1.5-.2s0-.3-.3-.3h-1.5c-.8,0-.7,0-.7-.9v-1c0-.9.2-2.6,1.5-2.6a2,2,0,0,1,1.3.8c.1.1.4.4.5.4s.5-.9.5-1.1c0-.5-1.3-.7-1.6-.7a4.08,4.08,0,0,0-2.7,1.3,4.63,4.63,0,0,0-.8,2.5c0,.6,0,1.1-.6,1.3-.1,0-.5.1-.5.3s.4.2.6.2c.6,0,.5.1.5.7v5.1c0,.8.1,1.5-.9,1.6-.2,0-.5,0-.5.3s.1.2.2.2c.6,0,1.2-.1,1.8-.1s1.2.1,1.9.1c.1,0,.2,0,.2-.2s-.3-.2-.5-.2c-1-.1-.9-.7-.9-1.6v-5.2Z"
     transform="translate(0)"
     id="path78" />
  <path
     class="cls-1"
     d="M178.4,243.5c0-.2,0-.3-.2-.3a.76.76,0,0,0-.4.2,5.78,5.78,0,0,1-1.7.6c-.1,0-.3.1-.3.2s.3.2.5.2c.9,0,.7.8.7,1.5v8.7c0,.8.2,1.5-.9,1.6-.2,0-.5,0-.5.3s.1.2.3.2c.6,0,1.2-.1,1.8-.1s1.2.1,1.8.1a.22.22,0,0,0,.2-.2c0-.2-.3-.2-.5-.2-1-.1-.9-.7-.9-1.6l.1-11.2Z"
     transform="translate(0)"
     id="path80" />
  <path
     class="cls-2"
     d="M183.5,246.5a.79.79,0,0,0,.8-.8.82.82,0,0,0-.8-.9.74.74,0,0,0-.8.8.82.82,0,0,0,.8.9Zm3.5,0a.79.79,0,0,0,.8-.8.82.82,0,0,0-.8-.9.74.74,0,0,0-.8.8.82.82,0,0,0,.8.9Zm2,2.2c0-.2.1-.5-.2-.5h-2.2c-.1,0-.3,0-.3.1s.4.2.5.2c1,0,.8.7.8,1.5v3.6c0,.5.1,1-.3,1.4a2.52,2.52,0,0,1-2,.9,2.08,2.08,0,0,1-1.9-.9,4.88,4.88,0,0,1-.3-2.1v-4.1c0-.3.1-.7-.3-.7h-2.1c-.1,0-.2,0-.2.1,0,.3.3.3.5.3,1,0,.9.7.9,1.5v2.9a4.31,4.31,0,0,0,.6,2.7,2.66,2.66,0,0,0,2.2,1.1c1.7,0,2.6-1.3,2.9-1.3s.1.7.1.8v.5c0,.1,0,.2.1.2a.35.35,0,0,0,.2-.1,5.45,5.45,0,0,1,1.9-.8c.1,0,.4-.1.4-.2a.22.22,0,0,0-.2-.2h-.2c-.9.1-.8-.5-.8-1.2l-.1-5.7Z"
     transform="translate(0)"
     id="path82" />
  <path
     class="cls-2"
     d="M198.8,248.6a2,2,0,0,1-1.1-.2,4.14,4.14,0,0,0-1.9-.5c-1.8,0-3.6,1.1-3.6,3.1s2.1,2.6,2.1,2.8-1.7.8-1.9.9a.22.22,0,0,0-.2.2c0,.2.9,1,1.1,1.1s.4.3.4.5-.5.4-.6.5l-.5.3a1.66,1.66,0,0,0-1,1.4,1.93,1.93,0,0,0,1.3,1.6,5.34,5.34,0,0,0,2.5.5c2,0,5.2-.9,5.2-3.4a2.14,2.14,0,0,0-1.2-1.7,4.22,4.22,0,0,0-2.2-.3h-2c-.3,0-1.1-.2-1.1-.6s.4-.4.6-.5a7,7,0,0,1,1.4-.3,3.7,3.7,0,0,0,2.7-.9,2.78,2.78,0,0,0,1-2,4.3,4.3,0,0,0-.2-1.2c0-.1-.1-.2-.1-.3s.7-.2.8-.2h.7c.1-.1,0-.2,0-.3,0-.5-.2-.4-.7-.4l-1.5-.1Zm-2.3,8c1,0,2.5.3,2.5,1.6,0,1.7-2.3,2.2-3.6,2.2a3.2,3.2,0,0,1-1.9-.5,1.72,1.72,0,0,1-.9-1.5c0-.9.9-1.4,1.6-1.8Zm-.9-2.9c-1.4,0-2.1-1.5-2.1-2.7s.8-2.7,2.2-2.7,2.1,1.5,2.1,2.6c0,1.4-.7,2.8-2.2,2.8Z"
     transform="translate(0)"
     id="path84" />
  <path
     class="cls-2"
     d="M209.3,251.4c.2,0,.2-.2.2-.3a3.41,3.41,0,0,0-.7-1.9,3.57,3.57,0,0,0-2.7-1.2,4.67,4.67,0,0,0-3.4,1.3,4,4,0,0,0-1.4,3.2,4.29,4.29,0,0,0,4.3,4.4,4.14,4.14,0,0,0,3-1.1c.1-.1.7-.6.7-.8a.35.35,0,0,0-.1-.2,4.42,4.42,0,0,1-2.8,1.2,3.71,3.71,0,0,1-3.7-4c0-.6.2-.6.8-.6Zm-5.8-.5c-.2,0-.6.1-.6-.2a2.22,2.22,0,0,1,.5-1.1,3.13,3.13,0,0,1,2.5-1.3,2.27,2.27,0,0,1,1.6.6,1.61,1.61,0,0,1,.5,1.1.77.77,0,0,1-.7.8,15,15,0,0,1-2.2.2l-1.6-.1Z"
     transform="translate(0)"
     id="path86" />
  <path
     class="cls-1"
     d="M213.3,243.5c0-.2,0-.3-.2-.3a.76.76,0,0,0-.4.2,5.78,5.78,0,0,1-1.7.6c-.1,0-.3.1-.3.2s.3.2.5.2c.9,0,.7.8.7,1.5v8.7c0,.8.2,1.5-.9,1.6-.2,0-.5,0-.5.3s.1.2.3.2c.6,0,1.2-.1,1.8-.1s1.2.1,1.8.1a.22.22,0,0,0,.2-.2c0-.2-.3-.2-.5-.2-1-.1-.9-.7-.9-1.6l.1-11.2Z"
     transform="translate(0)"
     id="path88" />
  <path
     class="cls-1"
     d="M35.6,178.7c6.1-1.2,12.5-5.2,12.5-12.3,0-5.3-3.9-9.2-8.4-11.2C34.5,153,27.5,153,21.9,153a117.39,117.39,0,0,0-17.8,1.1c-1,.2-4.1.6-4.1,2.2,0,.5.4.8,1,.8,1.1,0,2.6-.7,4.3-.7,4.7,0,4,3.9,4,7.5v36.8h0c0,5.7.4,7.7-5.9,7.7-.8,0-2.2-.3-2.2.9,0,1,.7,1.3,1.5,1.3,1.9,0,3.9-.4,5.7-.4,7.3,0,14.5.4,21.9.4,5.3,0,10-.4,14.4-3.5a15.29,15.29,0,0,0,7-12.5C51.6,185.6,43.7,179.7,35.6,178.7ZM17.3,156.3c1.4-1.6,5.5-1.6,7.4-1.6,7.8,0,15.2,3.2,15.2,12.2a11.08,11.08,0,0,1-3.3,8.2c-3,2.9-7.1,3.2-10.9,3.2H20.9c-3.9,0-4.4-.2-4.4-4.3V161.3C16.4,159.9,16.2,157.5,17.3,156.3Zm21.9,48.9c-3.3,3-7.3,3.6-11.6,3.6-2.3,0-6.6-.1-8.6-1.3-2.8-1.7-2.6-5.8-2.6-8.7V184.4c0-4.9.8-4.1,6.1-4.1,5,0,9.8,0,14.2,2.6,4.6,2.5,6.9,6.9,6.9,12.1A13.86,13.86,0,0,1,39.2,205.2ZM107,160c-6.7-5-14.8-7-23-7-3.6,0-25.7,1.1-25.7,4.3a1,1,0,0,0,1,1c.9,0,2.6-1,4.5-1,3.5,0,3,3.7,3,6.4v37h0c0,5.7.4,7.7-5.8,7.7-.9,0-2.3-.2-2.3,1,0,.9.7,1.2,1.5,1.2,1.9,0,3.7-.4,5.6-.4,6.5,0,13.1.4,19.7.4,8.7,0,16.6-1.5,23.3-7.4a28.79,28.79,0,0,0,9.6-21.5A28.07,28.07,0,0,0,107,160Zm-4.3,41.9c-5.5,5.7-11.8,7.1-19.4,7.1-7.8,0-9.6-1.9-9.6-9.9V161.9h0c0-1.4-.1-4.2,1-5.3,1.3-1.3,5.8-1.5,7.7-1.5,16.2,0,27.7,10.9,27.7,27.5A27.63,27.63,0,0,1,102.7,201.9Zm70.1,6.5c-4,0-5.3-3.4-6.9-6.5l-7.3-14c-1.2-2.3-2.6-5.5-5.5-5.9,7.4-1,14.2-5.7,14.2-13.9,0-9.4-8.4-13.6-16.9-13.6-5.1,0-10.1.4-15.3.4-2.9,0-5.9-.4-8.8-.4-1,0-1.6.4-1.6,1.3,0,1.1,1.4,1.1,2.2,1.1,6.3,0,5.8,1.7,5.8,7.4V201c0,5.6.5,7.4-5.8,7.4-.8,0-2.2-.1-2.2,1.1,0,1,.7,1.2,1.5,1.2,3.4,0,6.8-.4,10.2-.4s6.6.4,10,.4c.8,0,1.5-.2,1.5-1.2,0-1.2-1.5-1.1-2.3-1.1-6.2-.1-5.8-1.7-5.8-7.4V187.2c0-.8-.1-3,.5-3.6a2.75,2.75,0,0,1,2-.5c6.8,0,6.7.7,10,7l8.8,17.5c.7,1.3,1.3,3,3,3h9.5c.7,0,1.6-.1,1.6-1C175.1,208.4,173.5,208.4,172.8,208.4Zm-28.4-27.2c-1.5,0-4.6.6-4.6-1.6v-16c0-6.3.2-7.2,7-7.2,8,0,12.9,4.5,12.9,12.7,0,3.6-1.2,6.9-4.1,9.1C152.2,180.8,148.5,181.2,144.4,181.2Zm92,2.2c-3.1,0-6.2.4-9.2.4-3.2,0-6.5-.4-9.7-.4-.8,0-2.1,0-2.1,1.2s1.3,1.1,2.1,1.1c5.2,0,6.1.8,6.1,5.8v7.4c0,2.1.2,6-1.7,7.5-2.5,2.1-7.2,2.5-10.2,2.5-7.7,0-14.2-2.1-19.4-8-4.6-5.2-6.5-11.5-6.5-18.3,0-6.5,2.2-14.1,6.5-19.2,4.6-5.6,10.9-7.9,18-7.9,15.9,0,14.2,11.6,17.2,11.6,1,0,1.4-.9,1.4-1.8l-.2-3.8c-.3-3,.5-4.9-2.5-6.1a42,42,0,0,0-14.4-2.5c-17.2,0-34.1,12.4-34.1,30.3,0,8.6,3.8,15.6,10.4,21.1,6.3,5.1,13.8,7,21.9,7,6.5,0,13.5-1.3,19.1-4.9,2.1-1.3,1.6-2.3,1.6-4.7V191.4c0-1.3-.2-3.9,1-4.9.6-.6,2-.6,2.8-.7l1.7-.2c.8,0,1.7-.1,1.7-1.2C237.9,183.6,237.1,183.4,236.4,183.4Z"
     transform="translate(0)"
     id="path90" />
  <path
     class="cls-1"
     d="M216.7,180.4h-.5c-1.1,0-1.1-.5-1.1-1.5v-9.2h0c0-.1,0-.2-.2-.2s-.2,0-.2.1l-3,1.3c-.2,0-.5.2-.5.4a.22.22,0,0,0,.2.2,1.42,1.42,0,0,0,.6-.2l1-.5c.2-.1.3-.2.5-.2a.27.27,0,0,1,.3.3v8c0,1.2,0,1.5-1.3,1.5-.8,0-.9,0-.9.2a.27.27,0,0,0,.3.3h4.9c.2,0,.3-.1.3-.2C217,180.4,216.9,180.4,216.7,180.4Zm6.5-5.8.5-.3c1.1-.5,2.1-1,2.1-2.3,0-1.9-1.9-2.7-3.5-2.7a4.2,4.2,0,0,0-2.6.8,2.94,2.94,0,0,0-1.2,2.3c0,1.6,1.2,2.4,2.6,2.8l-.5.2c-1.2.5-2.4,1.1-2.4,2.7a3,3,0,0,0,1.3,2.3,3.93,3.93,0,0,0,2.5.8,4.53,4.53,0,0,0,3-1,3.34,3.34,0,0,0,1.2-2.5C226.2,176,224.7,175,223.2,174.6Zm-3.5-2.8a2.36,2.36,0,0,1,.7-1.6,2.72,2.72,0,0,1,1.7-.6,2.42,2.42,0,0,1,2.6,2.4,2.28,2.28,0,0,1-1,1.9,3.58,3.58,0,0,1-1.1.4,7.37,7.37,0,0,1-1.4-.4A2.19,2.19,0,0,1,219.7,171.8Zm4.6,8.1a2.62,2.62,0,0,1-2.2.9,2.69,2.69,0,0,1-1.3-5.1,2.47,2.47,0,0,1,.9-.4,5.78,5.78,0,0,1,1.7.6,2.62,2.62,0,0,1,1.6,2.3A3.25,3.25,0,0,1,224.3,179.9Zm7.9-5.3.5-.3c1.1-.5,2.1-1,2.1-2.3,0-1.9-1.9-2.7-3.5-2.7a4.2,4.2,0,0,0-2.6.8,2.94,2.94,0,0,0-1.2,2.3c0,1.6,1.2,2.4,2.6,2.8l-.6.2c-1.2.5-2.4,1.1-2.4,2.7a3,3,0,0,0,1.3,2.3,4,4,0,0,0,2.6.8,4.53,4.53,0,0,0,3-1,3.34,3.34,0,0,0,1.2-2.5C235.2,176,233.7,175,232.2,174.6Zm-3.5-2.8a2.36,2.36,0,0,1,.7-1.6,2.72,2.72,0,0,1,1.7-.6,2.42,2.42,0,0,1,2.6,2.4,2.28,2.28,0,0,1-1,1.9,3.58,3.58,0,0,1-1.1.4,7.37,7.37,0,0,1-1.4-.4A2.19,2.19,0,0,1,228.7,171.8Zm4.6,8.1a2.62,2.62,0,0,1-2.2.9,2.69,2.69,0,0,1-1.3-5.1,2.47,2.47,0,0,1,.9-.4,5.78,5.78,0,0,1,1.7.6,2.62,2.62,0,0,1,1.6,2.3A3.25,3.25,0,0,1,233.3,179.9Zm8.6.5h-.5c-1.2,0-1.1-.5-1.1-1.5v-9.2h0c0-.1,0-.2-.2-.2s-.2,0-.2.1l-3,1.3c-.2,0-.5.2-.5.4a.22.22,0,0,0,.2.2,1.42,1.42,0,0,0,.6-.2l1-.5c.2-.1.3-.2.5-.2a.27.27,0,0,1,.3.3v8c0,1.2,0,1.5-1.3,1.5-.8,0-.9,0-.9.2a.27.27,0,0,0,.3.3H242c.2,0,.3-.1.3-.2C242.2,180.4,242.1,180.4,241.9,180.4Z"
     transform="translate(0)"
     id="path92" />
  <path
     class="cls-1"
     d="M169.4,37.3C156.1,16.4,140.3,0,119.2,0S82.3,16.4,69,37.3c-13.5,21-24.8,57-24.8,89A211.28,211.28,0,0,0,45.3,148c0,.4.1.8.1,1.2s2.6.3,2.5,0-.1-.7-.1-1a188.7,188.7,0,0,1-1.1-21.9c0-31.5,11.2-67.1,24.5-87.6,13.2-20.9,28.3-36.2,48-36.2S154,17.8,167.3,38.6c13.2,20.6,24.5,56.1,24.5,87.6a213.81,213.81,0,0,1-1.1,21.9c0,.3-.1.7-.1,1s2.5.2,2.5,0a7.75,7.75,0,0,0,.1-.9,191.64,191.64,0,0,0,1.1-22C194.3,94.3,182.9,58.3,169.4,37.3ZM157.6,217.9c-.7.5-.8.6-1.2.9-11.1,7.8-24.1,11.1-37.1,11.1S93.1,226.6,82,218.7a7.82,7.82,0,0,1-1-.8c-.7-.6-4.6-.5-4,0,0,0,1.1.9,1.7,1.3,12,9.3,26.4,13.1,40.7,13.1s29-3.9,41.1-13.4l1.3-1C162.3,217.3,158.2,217.4,157.6,217.9Z"
     transform="translate(0)"
     id="path94" />
  <metadata
     id="metadata914">
    <rdf:RDF>
      <cc:Work
         rdf:about="">
        <dc:title>bdrg_logo</dc:title>
      </cc:Work>
    </rdf:RDF>
  </metadata>
</svg>
